<mxfile host="65bd71144e">
    <diagram id="LUYgUR6mbUMBfp7TSvP_" name="第 1 页">
        <mxGraphModel dx="1057" dy="779" grid="1" gridSize="10" guides="1" tooltips="1" connect="1" arrows="1" fold="1" page="1" pageScale="1" pageWidth="827" pageHeight="1169" math="0" shadow="0">
            <root>
                <mxCell id="0"/>
                <mxCell id="1" parent="0"/>
                <mxCell id="12" value="1" style="edgeStyle=none;html=1;fontSize=25;" edge="1" parent="1" source="2" target="11">
                    <mxGeometry relative="1" as="geometry"/>
                </mxCell>
                <mxCell id="19" value="" style="edgeStyle=none;html=1;fontSize=25;" edge="1" parent="1" source="2" target="18">
                    <mxGeometry relative="1" as="geometry"/>
                </mxCell>
                <mxCell id="22" value="1" style="edgeLabel;html=1;align=center;verticalAlign=middle;resizable=0;points=[];fontSize=25;" vertex="1" connectable="0" parent="19">
                    <mxGeometry x="-0.4" y="-2" relative="1" as="geometry">
                        <mxPoint x="8" y="-3" as="offset"/>
                    </mxGeometry>
                </mxCell>
                <mxCell id="25" value="" style="edgeStyle=none;html=1;fontSize=25;" edge="1" parent="1" source="2" target="24">
                    <mxGeometry relative="1" as="geometry"/>
                </mxCell>
                <mxCell id="27" value="1" style="edgeLabel;html=1;align=center;verticalAlign=middle;resizable=0;points=[];fontSize=25;" vertex="1" connectable="0" parent="25">
                    <mxGeometry x="0.2167" y="-1" relative="1" as="geometry">
                        <mxPoint y="7" as="offset"/>
                    </mxGeometry>
                </mxCell>
                <mxCell id="2" value="用户" style="rounded=0;whiteSpace=wrap;html=1;fontSize=25;fontStyle=1" vertex="1" parent="1">
                    <mxGeometry x="350" y="370" width="120" height="60" as="geometry"/>
                </mxCell>
                <mxCell id="3" value="账户" style="rounded=0;whiteSpace=wrap;html=1;fontSize=25;fontStyle=1" vertex="1" parent="1">
                    <mxGeometry x="40" y="370" width="120" height="60" as="geometry"/>
                </mxCell>
                <mxCell id="5" value="授权码" style="rounded=0;whiteSpace=wrap;html=1;fontSize=25;fontStyle=1" vertex="1" parent="1">
                    <mxGeometry x="350" y="460" width="120" height="60" as="geometry"/>
                </mxCell>
                <mxCell id="7" value="公告" style="rounded=0;whiteSpace=wrap;html=1;fontSize=25;fontStyle=1" vertex="1" parent="1">
                    <mxGeometry x="350" y="170" width="120" height="60" as="geometry"/>
                </mxCell>
                <mxCell id="9" value="会话" style="rounded=0;whiteSpace=wrap;html=1;fontSize=25;fontStyle=1" vertex="1" parent="1">
                    <mxGeometry x="670" y="370" width="120" height="60" as="geometry"/>
                </mxCell>
                <mxCell id="13" value="" style="edgeStyle=none;html=1;fontSize=25;" edge="1" parent="1" source="11" target="3">
                    <mxGeometry relative="1" as="geometry"/>
                </mxCell>
                <mxCell id="14" value="N" style="edgeLabel;html=1;align=center;verticalAlign=middle;resizable=0;points=[];fontSize=25;" vertex="1" connectable="0" parent="13">
                    <mxGeometry x="0.3333" y="-3" relative="1" as="geometry">
                        <mxPoint x="10" y="3" as="offset"/>
                    </mxGeometry>
                </mxCell>
                <mxCell id="11" value="拥有" style="rhombus;whiteSpace=wrap;html=1;fontSize=25;fontStyle=1" vertex="1" parent="1">
                    <mxGeometry x="210" y="370" width="90" height="60" as="geometry"/>
                </mxCell>
                <mxCell id="20" value="" style="edgeStyle=none;html=1;fontSize=25;" edge="1" parent="1" source="18" target="9">
                    <mxGeometry relative="1" as="geometry"/>
                </mxCell>
                <mxCell id="23" value="N" style="edgeLabel;html=1;align=center;verticalAlign=middle;resizable=0;points=[];fontSize=25;" vertex="1" connectable="0" parent="20">
                    <mxGeometry x="-0.5786" y="-1" relative="1" as="geometry">
                        <mxPoint x="10" y="-1" as="offset"/>
                    </mxGeometry>
                </mxCell>
                <mxCell id="18" value="创建" style="rhombus;whiteSpace=wrap;html=1;fontSize=25;fontStyle=1" vertex="1" parent="1">
                    <mxGeometry x="520" y="370" width="90" height="60" as="geometry"/>
                </mxCell>
                <mxCell id="26" value="" style="edgeStyle=none;html=1;fontSize=25;" edge="1" parent="1" source="24" target="7">
                    <mxGeometry relative="1" as="geometry"/>
                </mxCell>
                <mxCell id="28" value="N" style="edgeLabel;html=1;align=center;verticalAlign=middle;resizable=0;points=[];fontSize=25;" vertex="1" connectable="0" parent="26">
                    <mxGeometry x="0.2833" relative="1" as="geometry">
                        <mxPoint y="9" as="offset"/>
                    </mxGeometry>
                </mxCell>
                <mxCell id="24" value="撰写（管理员）" style="rhombus;whiteSpace=wrap;html=1;fontSize=25;fontStyle=1" vertex="1" parent="1">
                    <mxGeometry x="280" y="270" width="260" height="60" as="geometry"/>
                </mxCell>
            </root>
        </mxGraphModel>
    </diagram>
</mxfile>